<!DOCTYPE svg PUBLIC "-//W3C//DTD SVG 1.1//EN" "http://www.w3.org/Graphics/SVG/1.1/DTD/svg11.dtd" [
	<!ENTITY ns_flows "http://ns.adobe.com/Flows/1.0/">
]><svg xmlns="http://www.w3.org/2000/svg" width="136" height="49" viewBox="-0.187 -1 136 49" enable-background="new -0.187 -1 136 49"><path fill="#018C99" fill-rule="evenodd" d="M135.46 43.58c0 2.26-1.6 4.1-3.54 4.1H3.52C1.6 47.67 0 45.83 0 43.57V4.08C0 1.84 1.58 0 3.53 0h128.4c1.95 0 3.53 1.83 3.53 4.1v39.48z" clip-rule="evenodd"/><path fill="#fff" fill-rule="evenodd" d="M49.24 22.6h6.26c1.12 0 1.82-.27 2.32-.57.76-.47 1.53-1.36 1.87-2.65.1-.37.13-.7.13-1 0-.55-.13-.96-.33-1.26-.33-.47-.84-.82-2.26-.82h-3.22c-.56 0-1.03-.47-1.03-1.14 0-.14 0-.3.05-.44.23-.85.92-1.47 2.05-1.47h5.52l.42-1.6h-6.26c-1.38 0-2.2.35-2.95 1.07-.54.5-1 1.2-1.22 2.05-.1.37-.13.72-.13 1.04 0 .57.13 1.03.33 1.32.3.43.94.85 2.23.85h3.02c.65 0 1.12.4 1.12 1.1 0 .14-.02.3-.07.46-.22.84-.97 1.42-1.66 1.42H49.7l-.46 1.64M60.1 22.6h2.15l2.97-10.97h-2.2l-2.9 10.98M69.75 17.92h3.17l-.82 3.03-2.85-.02c-1.2 0-1.86-.57-1.97-1.7 0-.06 0-.16 0-.27 0-.45.06-1.16.3-2.03.72-2.76 2-3.64 3.8-3.64h4.77l.43-1.65-5.7-.02c-.54 0-2.4.34-3.86 2-.62.7-1.26 1.7-1.78 3.66-.2.7-.27 1.4-.27 2 0 .8.14 1.43.32 1.8.22.48.54.82 1.13 1.1.53.25 1.2.38 1.75.38h5.54l1.65-6.22-5.18-.08-.45 1.64M75.4 22.6h2.07l2.14-8.9 2.7 8.9h2.55l2.9-10.96h-2.02l-2.2 8.9-2.55-8.9H78.3L75.4 22.6M87.1 22.6h6.25c1.1 0 1.82-.27 2.32-.57.76-.47 1.52-1.36 1.86-2.65.1-.37.14-.7.14-1 0-.54-.13-.96-.33-1.26-.32-.47-.84-.82-2.25-.82h-3.23c-.57 0-1.03-.47-1.03-1.14 0-.14 0-.3.06-.44.23-.85.92-1.47 2.04-1.47h5.53l.43-1.6h-6.27c-1.38 0-2.2.35-2.95 1.07-.54.5-1 1.2-1.22 2.05-.1.37-.14.72-.14 1.04 0 .57.13 1.03.33 1.32.3.43.93.85 2.23.85h3c.67 0 1.14.4 1.14 1.1 0 .13-.03.3-.07.46-.22.84-.98 1.42-1.67 1.42h-5.73l-.46 1.64M108.7 36.12H115c1.1 0 1.8-.26 2.3-.56.78-.47 1.54-1.36 1.88-2.65.1-.36.14-.7.14-1 0-.53-.13-.95-.33-1.25-.32-.47-.84-.82-2.26-.82h-3.2c-.57 0-1.04-.47-1.04-1.14 0-.15.02-.3.06-.45.23-.86.92-1.48 2.05-1.48h5.53l.42-1.6h-6.26c-1.4 0-2.2.36-2.96 1.07-.54.5-1 1.2-1.22 2.06-.1.37-.14.72-.14 1.04 0 .56.14 1.02.33 1.3.3.44.94.86 2.24.86h3.02c.65 0 1.12.4 1.12 1.08 0 .15-.02.32-.07.48-.22.84-.97 1.42-1.66 1.42h-5.73l-.46 1.64M98 36.12h6.28c1.12 0 1.8-.26 2.32-.56.76-.47 1.53-1.36 1.86-2.65.1-.36.14-.7.14-1 0-.53-.13-.95-.33-1.25-.32-.47-.83-.82-2.25-.82h-3.22c-.57 0-1.03-.47-1.03-1.14 0-.15.02-.3.06-.45.23-.86.92-1.48 2.04-1.48h5.53l.42-1.6h-6.26c-1.38 0-2.2.36-2.95 1.07-.53.5-1 1.2-1.2 2.06-.1.37-.15.72-.15 1.04 0 .56.13 1.02.33 1.3.3.44.93.86 2.23.86h3.02c.65 0 1.13.4 1.13 1.1 0 .14-.03.3-.07.46-.22.84-.98 1.42-1.66 1.42h-5.74L98 36.12M91.23 31.46h6.1l.4-1.58h-6.37l.12-.4c.2-.66.62-1.34.98-1.7.56-.57 1.44-1 2.38-1h3.73l.43-1.64h-4.64c-1.1 0-2.53.62-3.6 1.73-.58.6-1.4 1.83-1.88 3.66-.25.92-.34 1.72-.34 2.38 0 .64.08 1.13.2 1.47.33 1 1.23 1.72 3.1 1.72h.03l4.18-.02.43-1.57H92.9c-.23 0-.75-.1-1.02-.2-.7-.32-1.1-.9-1.1-1.76 0-.04 0-.1.02-.13 0-.18.03-.36.08-.55l.04-.15.1-.24h.2" clip-rule="evenodd"/><path fill="#fff" fill-rule="evenodd" d="M86.22 25.17H79.2l-2.95 10.95h2.1l1.17-4.36h2.98l1.33 4.36h2.4L84.86 32l-.1-.3.3-.1c1.48-.43 2.64-1.5 3.07-3.14.1-.4.15-.76.15-1.1 0-1.4-.88-2.2-2.08-2.2zm-.52 3.43c-.27.98-1.07 1.7-2.45 1.7H79.9l.95-3.56h3.38c.6 0 .8.06 1 .2.34.25.53.65.53 1.12 0 .18-.03.36-.08.54zM76.56 26.06c-.26-.35-.62-.6-1.3-.75-.12 0-1.1-.12-1.52-.12H68.2l-2.88 10.9h2l1.04-3.9h4.56c1.64 0 3.38-1.26 3.97-3.5.1-.37.13-.7.13-1.04 0-.66-.18-1.22-.47-1.58zM74.6 28.7c-.17.62-.82 1.95-2.38 1.95h-.04l-3.4-.04 1.03-3.85h3.46c.8 0 1.4.57 1.4 1.4 0 .2-.02.37-.07.56zM54.07 36.08h2.42l3.58-4.03 1.5 4.03h2.36l-2.16-5.58 4.93-5.32h-2.3l-3.46 3.8-1.36-3.8h-2.5l2.18 5.42-5.2 5.48M48.23 31.47h6.1l.4-1.57h-6.37l.12-.4c.2-.65.62-1.33.98-1.7.56-.56 1.44-.98 2.38-.98h3.7l.45-1.64h-4.63c-1.1 0-2.54.62-3.62 1.72-.58.6-1.4 1.83-1.88 3.65-.24.9-.34 1.72-.34 2.37 0 .62.1 1.1.2 1.45.34.98 1.24 1.7 3.12 1.7h4.2l.42-1.56H49.9c-.23 0-.76-.1-1.02-.2-.7-.32-1.1-.9-1.1-1.75 0-.04 0-.1 0-.14.03-.17.04-.35.1-.54 0-.02.02-.1.04-.15l.08-.23h.23" clip-rule="evenodd"/><path fill="#fff" d="M119.9 21.46c.7 0 1.27.6 1.27 1.3 0 .75-.57 1.33-1.3 1.33-.7 0-1.28-.6-1.28-1.33 0-.72.57-1.3 1.28-1.3zm-.02.2c-.57 0-1.05.5-1.05 1.1 0 .63.48 1.12 1.06 1.12.57 0 1.03-.48 1.03-1.1s-.46-1.1-1.04-1.1h-.02zm-.24 1.87h-.24v-1.45c.13-.02.24-.04.42-.04.22 0 .36.05.45.1s.13.17.13.3c0 .2-.12.32-.28.37v.02c.13.02.2.14.24.35.04.23.07.32.1.36h-.25c-.02-.04-.06-.18-.1-.37-.02-.2-.1-.25-.3-.25h-.16v.63zm0-.8h.16c.2 0 .36-.07.36-.25 0-.13-.1-.26-.35-.26-.07 0-.12 0-.16 0v.5zM30.5 30.6c-.13-1.16-.54-2.98-3.82-7.95-1.35-2.06-2.87-4.55-2.4-7.13.4-2.1 3.35-3.97 4.66-3.97H20.8l-6.5 24.57h12.6s4.1-.95 3.6-5.5zm14-14.6c-.35.2-.77.47-1.07.74-.6.54-2.34 2.4-2.34 2.4h-.02s-.04 1.95-.04 2.9.38 1.5.75 1.37c.18-.05.52-.2.8-.34L44.5 16v.03V16zm-12.93-4.45c-2.06 0-4.03 1.05-4.85 2.97-.97 2.28-.4 4.47.8 6.52 2 3.5 3.93 5.56 4.92 8 1.36 3.3-.9 6.12-4.06 7.08h10.7l3.1-11.52.12-.43c-.42.15-1.14.4-1.67.43-.73.04-1.33-.5-1.53-1.12 0-.04-.02-.08-.03-.12-.1-.42-.05-2.17-.04-2.23 0 0 0 0-.02 0-.05.05-.3.26-1.23 1.22-1.1 1.16-2.48 1.9-3.35 2.16-.72.2-1.48.1-1.8-.32 0 0-.02-.02-.03-.03-.02-.03-.04-.06-.05-.08 0 0-.02-.03-.02-.04-.02-.04-.04-.08-.05-.13-.2-.8.6-1.5.86-1.63.26-.13 1.3-.27 1.54.3.03.08.05.18.04.3 0 .2.03.33.1.4 0 .02 0 .03 0 .04.02.02.03.03.04.03 0 0 .02.02.03.03.05.02.13.02.22 0 .03 0 .06-.02.08-.03.03 0 .06-.03.08-.04.02 0 .03-.02.04-.03 0 0 .02 0 .03 0 .35-.2.76-.58 1-.78.25-.23.23-.24 2.48-2.62 0 0 .04-1.13.04-1.77 0-.63.05-2.1-.5-2.15-.63-.08-2.65 1.93-2.65 1.93l-.62-.4 1.57-1.44s.02-.02.06-.06c.25-.2 1.2-.98 2-1.32.23-.1.43-.15.6-.16.17 0 .3 0 .43.02.4.07.66.3.84.6.1.14.16.3.2.5.12.32.15.9.15 1.4 0 .47-.02.86-.02.86s.18-.17.45-.43c.42-.4 1.06-1.03 1.62-1.54.53-.47 1.15-.82 1.6-1.03l.9-3.32s-14.1 0-14.13 0z"/></svg>